<?xml version="1.0" standalone="no"?>
<!DOCTYPE svg PUBLIC "-//W3C//DTD SVG 20010904//EN"
 "http://www.w3.org/TR/2001/REC-SVG-20010904/DTD/svg10.dtd">
<svg version="1.0" xmlns="http://www.w3.org/2000/svg"
 width="162.000000pt" height="130.000000pt" viewBox="0 0 162.000000 130.000000"
 preserveAspectRatio="xMidYMid meet">
<metadata>
Created by potrace 1.16, written by Peter Selinger 2001-2019
</metadata>
<g transform="translate(0.000000,130.000000) scale(0.100000,-0.100000)"
fill="#000000" stroke="none">
<path d="M760 1151 c-99 -30 -167 -109 -191 -221 l-11 -50 -72 0 c-91 0 -111
-15 -120 -94 -8 -60 2 -89 34 -106 30 -16 29 -115 -2 -148 -22 -23 -23 -31
-23 -189 0 -159 1 -165 23 -183 21 -17 48 -18 418 -17 l396 2 28 32 c28 31 29
35 29 142 0 101 -2 111 -23 133 l-23 23 38 129 c22 71 39 133 39 138 0 5 -11
20 -25 33 -21 22 -33 25 -92 25 l-68 0 0 83 c0 65 -5 90 -22 122 -29 54 -88
109 -143 134 -47 21 -140 27 -190 12z m258 -238 c9 -10 28 -17 42 -16 22 1 22
1 3 -4 -25 -5 -30 -18 -12 -29 7 -4 0 -17 -17 -35 -15 -16 -22 -29 -16 -29 7
0 12 -7 12 -15 0 -15 41 -19 147 -15 49 2 83 -14 83 -38 -1 -38 -81 -278 -97
-290 -24 -17 -88 -15 -107 4 -12 12 -14 20 -5 36 8 15 7 24 -6 38 -11 12 -16
29 -12 45 3 17 0 28 -9 32 -16 6 -19 73 -4 73 6 0 10 14 10 30 0 17 -4 30 -10
30 -5 0 -10 11 -10 23 0 13 -8 34 -19 46 -18 21 -19 21 -42 3 l-23 -19 35 4
34 4 -27 -16 c-16 -9 -28 -22 -28 -30 0 -8 -5 -15 -11 -15 -7 0 -9 -11 -4 -32
3 -18 9 -55 11 -83 3 -27 8 -57 11 -65 3 -8 5 -19 4 -24 -1 -5 8 -6 20 -3 31
8 69 -9 69 -32 0 -11 -5 -23 -10 -26 -6 -4 0 -15 15 -27 20 -16 35 -19 73 -14
26 3 61 6 77 8 l30 3 3 -70 c2 -38 4 -85 4 -102 1 -22 -7 -42 -23 -59 -22 -23
-30 -25 -89 -23 -36 2 -83 0 -106 -4 -30 -6 -52 -4 -83 9 -32 13 -45 14 -50 5
-4 -6 -21 -11 -37 -11 -16 0 -67 0 -113 0 -54 0 -87 4 -92 11 -5 9 -14 9 -36
0 -17 -7 -63 -11 -109 -9 l-79 3 -3 159 c-3 168 3 193 36 163 20 -18 126 -25
136 -8 3 5 22 3 43 -4 32 -11 39 -18 43 -47 4 -29 9 -33 35 -33 27 0 30 3 30
30 0 25 -5 31 -30 36 -19 4 1 7 53 8 45 0 82 -2 82 -6 0 -4 -18 -24 -41 -45
l-40 -37 6 -73 c9 -108 12 -115 45 -126 23 -9 33 -8 45 4 19 20 19 60 0 68 -9
3 -15 18 -15 36 0 20 5 30 15 30 10 0 15 10 15 29 0 16 -6 31 -15 35 -22 8
-19 37 3 30 16 -5 16 -5 0 5 -31 20 -7 91 31 91 25 0 26 65 1 100 -25 35 -25
40 1 40 16 0 20 5 17 28 -3 23 -8 27 -38 30 -19 2 -43 -3 -54 -11 -23 -17 -24
-61 -2 -86 20 -22 21 -41 1 -41 -10 0 -15 -10 -15 -30 0 -23 4 -30 20 -30 11
0 20 -7 20 -15 0 -22 -212 -22 -230 0 -12 14 -15 14 -30 0 -20 -18 -101 -20
-118 -3 -8 8 -12 46 -12 104 0 88 -1 93 -22 96 -20 3 -23 10 -26 51 -5 71 4
77 117 77 103 0 121 -7 121 -47 0 -18 6 -23 25 -23 18 0 25 5 25 19 0 24 51
36 63 15 4 -8 19 -14 33 -14 14 0 23 4 20 9 -3 5 -15 7 -26 4 -11 -3 -20 -1
-20 5 0 5 29 13 63 16 61 7 64 9 59 31 -10 57 92 101 136 58z"/>
<path d="M442 773 c2 -31 7 -39 26 -41 12 -2 22 -9 22 -17 0 -7 5 -15 11 -17
18 -6 21 -88 4 -94 -9 -4 -15 -19 -15 -40 0 -33 1 -34 40 -34 l40 0 0 100 0
100 26 0 c23 0 25 3 22 38 l-3 37 -88 3 -88 3 3 -38z"/>
<path d="M630 705 c0 -22 4 -25 35 -25 42 0 47 -15 5 -16 -45 -2 -61 -21 -58
-67 4 -57 36 -77 106 -70 l52 6 0 83 c0 74 -2 84 -22 98 -13 9 -43 16 -70 16
-45 0 -48 -2 -48 -25z"/>
<path d="M1045 713 c59 -150 65 -172 49 -208 -17 -40 -8 -49 41 -43 24 3 30
11 46 63 23 73 23 75 4 75 -8 0 -16 6 -16 13 -4 39 -4 84 -1 95 5 15 52 16 52
1 0 -5 5 -7 10 -4 22 13 8 25 -30 25 -37 0 -39 -2 -46 -35 -8 -44 -17 -44 -29
-2 -9 28 -15 32 -49 35 -34 3 -38 1 -31 -15z"/>
<path d="M440 341 l0 -141 73 0 c92 0 117 15 117 70 0 21 -7 45 -15 53 -13 13
-13 16 0 27 21 17 19 73 -4 101 -16 20 -30 24 -95 27 l-76 4 0 -141z"/>
<path d="M918 375 c-82 -82 -2 -206 113 -175 36 10 39 14 39 45 0 37 -9 42
-41 24 -42 -22 -38 -2 5 28 26 18 46 37 46 43 0 6 -12 22 -26 35 -38 35 -102
35 -136 0z"/>
<path d="M1110 380 c-11 -11 -20 -26 -20 -34 0 -7 9 -25 20 -39 24 -30 26 -51
5 -43 -12 4 -15 -3 -15 -29 0 -34 1 -35 39 -35 67 0 91 48 51 100 -24 30 -25
40 -5 40 10 0 15 10 15 30 0 28 -3 30 -35 30 -22 0 -43 -8 -55 -20z"/>
</g>
</svg>
